#!OML:ASF G:\ViconDB\ViconDB\414\test\team2\shane.ASF
:FULLY-SPECIFIED
:DEGREES
329
root 1.40941 16.3887 20.4421 -10.2387 -1.98018 -3.50643
lowerback 8.8718 0.581871 -0.682028
upperback 7.49628 0.735771 -0.522406
thorax 2.80601 0.35173 -0.203749
lowerneck -5.77472 -3.46206 -10.1043
upperneck 48.6156 -0.866974 -4.19794
head 20.453 -2.77333 -0.495638
rclavicle -6.26172e-015 -1.59028e-015
rhumerus -16.874 -5.71439 -51.0952
rradius 124.817
rwrist 161.482
rhand -6.80791 19.0237
rfingers 7.12502
rthumb 19.0556 -10.0628
lclavicle -6.26172e-015 -1.59028e-015
lhumerus -43.1814 -32.6684 96.9083
lradius 42.6711
lwrist -18.2627
lhand -38.9559 5.21478
lfingers 7.12502
lthumb -11.9611 34.853
rfemur -6.83389 -17.4133 13.2506
rtibia 77.2182
rfoot -14.9284 5.20948
rtoes -16.3529
lfemur -1.72276 8.96024 -11.375
ltibia 40.353
lfoot -30.2118 -7.17389
ltoes -7.36809
330
root 1.41918 16.3481 20.6207 -10.5874 -1.87586 -3.61682
lowerback 8.97064 0.399555 -0.668952
upperback 7.6316 0.492532 -0.427923
thorax 2.89386 0.227167 -0.0985386
lowerneck -5.6115 -3.66419 -10.5563
upperneck 48.6288 -1.05218 -4.34463
head 20.4528 -2.95048 -0.525494
rclavicle -1.96797e-014 0
rhumerus -16.874 -5.71439 -51.0952
rradius 124.817
rwrist 161.482
rhand -6.80791 19.0237
rfingers 7.12502
rthumb 19.0556 -10.0628
lclavicle -1.96797e-014 0
lhumerus -43.0701 -32.887 96.993
lradius 42.7405
lwrist -18.1253
lhand -39.0314 5.09799
lfingers 7.12502
lthumb -12.034 34.732
rfemur -7.97215 -17.7193 13.6599
rtibia 76.6592
rfoot -15.9037 4.95623
rtoes -16.8786
lfemur -0.646846 8.7599 -11.2513
ltibia 40.4079
lfoot -31.0428 -6.62693
ltoes -7.66436
331
root 1.43245 16.3233 20.8014 -10.9422 -1.60857 -3.46372
lowerback 9.11377 0.219967 -0.701896
upperback 7.72283 0.252655 -0.526873
thorax 2.91279 0.107773 -0.167899
lowerneck -5.36028 -3.89621 -10.69
upperneck 48.5175 -1.30035 -4.67958
head 20.3178 -3.11137 -0.707268
rclavicle 5.96354e-015 -2.38542e-015
rhumerus -16.874 -5.71439 -51.0952
rradius 124.817
rwrist 161.482
rhand -6.80791 19.0237
rfingers 7.12502
rthumb 19.0556 -10.0628
lclavicle 5.96354e-015 -2.38542e-015
lhumerus -43.3581 -33.5762 97.1187
lradius 43.0765
lwrist -17.8403
lhand -39.102 5.08345
lfingers 7.12502
lthumb -12.102 34.7135
rfemur -9.03349 -18.044 13.6906
rtibia 75.8165
rfoot -16.6871 5.0531
rtoes -16.6883
lfemur 0.659486 8.34326 -11.5141
ltibia 39.9685
lfoot -31.638 -5.95675
ltoes -8.14573
332
root 1.42832 16.336 20.9898 -11.0896 -1.46569 -3.9235
lowerback 9.15074 0.00899131 -0.483805
upperback 7.70467 -0.0177724 -0.328363
thorax 2.87354 -0.0239283 -0.0675166
lowerneck -5.17929 -4.06751 -10.9102
upperneck 48.3763 -1.4341 -4.9959
head 20.1841 -3.24104 -0.843049
rclavicle -6.75868e-015 0
rhumerus -16.874 -5.71439 -51.0952
rradius 124.817
rwrist 161.482
rhand -6.80791 19.0237
rfingers 7.12502
rthumb 19.0556 -10.0628
lclavicle -6.75868e-015 0
lhumerus -43.4684 -33.3514 97.136
lradius 43.3503
lwrist -17.1138
lhand -38.8009 4.7619
lfingers 7.12502
lthumb -11.8116 34.4088
rfemur -10.4431 -17.7451 14.5357
rtibia 74.8234
rfoot -16.9486 5.80838
rtoes -12.6968
lfemur 1.86652 8.03326 -10.9529
ltibia 39.3985
lfoot -32.135 -5.56178
ltoes -8.78023
333
root 1.43224 16.3101 21.1767 -11.2215 -1.36141 -3.75139
lowerback 9.10731 -0.0741356 -0.556501
upperback 7.75212 -0.130794 -0.416878
thorax 2.94776 -0.0816827 -0.111295
lowerneck -5.20111 -4.3146 -11.1316
upperneck 48.2542 -1.7127 -5.16323
head 20.1269 -3.40951 -0.933472
rclavicle -1.55052e-014 -8.74653e-015
rhumerus -16.874 -5.71439 -51.0952
rradius 124.817
rwrist 161.482
rhand -6.80791 19.0237
rfingers 7.12502
rthumb 19.0556 -10.0628
lclavicle -1.55052e-014 -8.74653e-015
lhumerus -43.6509 -33.8552 97.1262
lradius 43.3828
lwrist -17.3243
lhand -39.1461 5.14412
lfingers 7.12502
lthumb -12.1445 34.7716
rfemur -11.3739 -18.2995 14.7667
rtibia 73.4225
rfoot -18.1665 4.69799
rtoes -15.008
lfemur 3.12783 7.7653 -11.1429
ltibia 38.5877
lfoot -32.4039 -5.31955
ltoes -9.00942
334
root 1.42829 16.3316 21.3716 -11.3406 -1.08324 -3.73645
lowerback 9.08558 -0.192515 -0.697111
upperback 7.70989 -0.297026 -0.375527
thorax 2.91661 -0.172037 0.0208572
lowerneck -5.08037 -4.51441 -11.2623
upperneck 48.0671 -1.93 -5.41002
head 19.9734 -3.54354 -1.05824
rclavicle 1.99779e-014 -1.66979e-014
rhumerus -16.874 -5.71439 -51.0952
rradius 124.817
rwrist 161.482
rhand -6.80791 19.0237
rfingers 7.12502
rthumb 19.0556 -10.0628
lclavicle 1.99779e-014 -1.66979e-014
lhumerus -43.9154 -34.0155 97.2919
lradius 43.5876
lwrist -16.7371
lhand -38.9636 5.44819
lfingers 7.12502
lthumb -11.9685 35.086
rfemur -12.4112 -18.4283 15.0657
rtibia 71.7645
rfoot -18.5886 4.54628
rtoes -13.4771
lfemur 4.53103 7.42981 -11.1173
ltibia 37.4984
lfoot -32.7 -5.3592
ltoes -8.79564
335
root 1.41738 16.3631 21.5704 -11.3205 -0.940522 -4.1303
lowerback 8.89271 -0.245559 -0.462559
upperback 7.67507 -0.3545 -0.18656
thorax 2.9854 -0.195656 0.0876566
lowerneck -5.03881 -4.76765 -11.4629
upperneck 47.9069 -2.2247 -5.58566
head 19.8705 -3.71089 -1.15141
rclavicle -1.19271e-014 5.56597e-015
rhumerus -16.874 -5.71439 -51.0952
rradius 124.817
rwrist 161.482
rhand -6.80791 19.0237
rfingers 7.12502
rthumb 19.0556 -10.0628
lclavicle -1.19271e-014 5.56597e-015
lhumerus -43.9516 -34.2803 97.4126
lradius 43.4216
lwrist -16.7214
lhand -39.0304 5.56722
lfingers 7.12502
lthumb -12.0329 35.2013
rfemur -13.46 -18.3756 15.9714
rtibia 69.7671
rfoot -18.9581 4.08194
rtoes -12.0926
lfemur 5.92293 7.34951 -10.5149
ltibia 36.1849
lfoot -32.7983 -5.56158
ltoes -9.13334
336
root 1.40811 16.372 21.7583 -11.2562 -0.510261 -4.17994
lowerback 8.86997 -0.345243 -0.464622
upperback 7.59542 -0.486527 -0.167092
thorax 2.91476 -0.261841 0.117231
lowerneck -5.08927 -5.01295 -11.5795
upperneck 47.7475 -2.5434 -5.68533
head 19.7886 -3.8641 -1.22713
rclavicle -1.16289e-014 -1.51076e-014
rhumerus -16.874 -5.71439 -51.0952
rradius 124.817
rwrist 161.482
rhand -6.80791 19.0237
rfingers 7.12502
rthumb 19.0556 -10.0628
lclavicle -1.16289e-014 -1.51076e-014
lhumerus -44.1256 -34.959 97.6113
lradius 43.8772
lwrist -13.763
lhand -38.4046 4.71093
lfingers 7.12502
lthumb -11.4295 34.3794
rfemur -14.2446 -18.9254 16.485
rtibia 67.4768
rfoot -19.8895 2.96237
rtoes -13.7093
lfemur 7.2926 7.04754 -10.366
ltibia 34.5255
lfoot -32.6067 -5.81191
ltoes -9.36375
337
root 1.39756 16.4174 21.9623 -11.0916 -0.130604 -4.45527
lowerback 8.62858 -0.441885 -0.252639
upperback 7.4842 -0.602633 -0.0558228
thorax 2.9296 -0.313422 0.119138
lowerneck -5.10184 -5.21303 -11.7324
upperneck 47.5014 -2.81095 -5.73796
head 19.6365 -3.99431 -1.25509
rclavicle 1.74931e-014 0
rhumerus -16.874 -5.71439 -51.0952
rradius 124.817
rwrist 161.482
rhand -6.80791 19.0237
rfingers 7.12502
rthumb 19.0556 -10.0628
lclavicle -1.16289e-014 -1.51076e-014
lhumerus -44.1256 -34.959 97.6113
lradius 43.8772
lwrist -13.763
lhand -38.4046 4.71093
lfingers 7.12502
lthumb -11.4295 34.3794
rfemur -15.139 -19.0242 17.1186
rtibia 64.9368
rfoot -20.1353 2.85463
rtoes -12.5602
lfemur 8.78935 6.83183 -9.98139
ltibia 32.4919
lfoot -32.2817 -5.92857
ltoes -9.46028
